<!--<svg xmlns="http://www.w3.org/2000/svg" width="24" height="24" viewBox="0 0 24 24" fill="none" stroke="#4d922f" stroke-width="2" stroke-linecap="round" stroke-linejoin="round" class="lucide lucide-bot-message-square"><path d="M12 6V2H8"/><path d="m8 18-4 4V8a2 2 0 0 1 2-2h12a2 2 0 0 1 2 2v8a2 2 0 0 1-2 2Z"/><path d="M2 12h2"/><path d="M9 11v2"/><path d="M15 11v2"/><path d="M20 12h2"/></svg>-->
<!--<svg xmlns="http://www.w3.org/2000/svg" width="24" height="24" viewBox="0 0 24 24" fill="none" stroke="#31af18" stroke-width="2" stroke-linecap="round" stroke-linejoin="round" class="lucide lucide-film-icon lucide-film"><rect width="18" height="18" x="3" y="3" rx="2"/><path d="M7 3v18"/><path d="M3 7.5h4"/><path d="M3 12h18"/><path d="M3 16.5h4"/><path d="M17 3v18"/><path d="M17 7.5h4"/><path d="M17 16.5h4"/></svg>-->
<svg xmlns="http://www.w3.org/2000/svg" width="48" height="48" viewBox="0 0 24 24" fill="none" stroke="#22c55e" stroke-width="1.5" stroke-linecap="round" stroke-linejoin="round" class="lucide lucide-clapperboard-icon lucide-clapperboard"><path d="M20.2 6 3 11l-.9-2.4c-.3-1.1.3-2.2 1.3-2.5l13.5-4c1.1-.3 2.2.3 2.5 1.3Z"/><path d="m6.2 5.3 3.1 3.9"/><path d="m12.4 3.4 3.1 4"/><path d="M3 11h18v8a2 2 0 0 1-2 2H5a2 2 0 0 1-2-2Z"/></svg>